<?xml version="1.0" encoding="UTF-8"?>
<svg viewBox="0 0 640 480" xmlns="http://www.w3.org/2000/svg">
 <g fill="#429ad2">
  <path d="m-440.01 332.46c0-8.0722 45.733-28.988 83.676-28.13h0.35049c33.84 1.0826 46.917-35.966 12.424-40.801-17.721-2.487-29.661-4.8563-36.929-11.846-15.617-15.019-10.234-46.407 6.0459-57.878 53.627-37.778 121.26 23.574 159.31 60.226 31.452 30.306 79.525 31.935 88.802 32.171l0.3602 0.0216c34.958-3.7737 74.692-1.5547 108.89 12.478 51.712 21.204 100.49 11.063 152.35-3.0553 73.906-20.111 56.147-114.11-25.292-110.48-80.018 3.5591-74.74-104.93-0.46447-112.72 135.91-14.247 98.128 220.55 285.67 191.54 140.18-21.676 108.17 44.821 196.17 33.619 51.56-6.5608 108.51-30.617 166.22-86.212 63.084-60.773 175.23-162.48 264.13-99.858 17.446 12.296 25.719 30.949 24.923 51.35-1.9617 50.203-23.899 56.924-76.142 64.256-52.234 7.3436-29.254 66.444 6.3017 50.042 84.529-38.989 133.27 22.47 212.9 45.807l29.936 8.7798-1659.6 0.6969h6.1e-5z"/>
  <path d="m512.79 148.36s7.6571 21.312-12.746 37.896c-20.402 16.584-28.012 0.064117-60.364 4.5239-32.362 4.4594-34.759 8.4474-43.629 16.359-8.8698 7.9008-24.127 4.8347-19.18-16.156 4.9464-20.99 15.134-36.791 43.781-56.002 74.967-42.087 92.138 13.379 92.138 13.379z"/>
  <path d="m106.53 271.59c-7.8843 15.759-51.248 3.5699-67.073-4.8455-15.835-8.4154-22.317-28.13-14.442-43.888 7.8843-15.759 27.216-21.741 43.051-13.336 15.825 8.4154 46.339 46.311 38.464 62.07h8e-6z"/>
 </g>
 <g fill="#fff">
  <path d="m37.65 223.06c-0.79582-4.8883 2.9376-9.6481 8.3488-10.645 5.4108-0.98604 10.443 2.1762 11.248 7.0541 0.80572 4.8883-2.9281 9.6589-8.3389 10.645-5.4111 0.98636-10.453-2.1762-11.258-7.0538z"/>
  <path d="m66.08 136.85c-2.6629 27.058 24.629 28.816 19.455 0.24666-1.592-8.8014-1.0992-16.273 7.9222-22.727 6.7564-4.835 0.82449-9.3052-3.4967-10.002-10.13-1.608-22.07 14.076-23.88 32.482z"/>
  <path d="m104.81 96.86c-0.72014-4.3632 2.6155-8.6296 7.4577-9.5087 4.833-0.88985 9.3439 1.9404 10.064 6.3141 0.72012 4.3632-2.625 8.6192-7.4672 9.5087-4.8331 0.87905-9.3436-1.9404-10.054-6.3141z"/>
  <path d="m474.36 129.2c17.266 2.9159 10.557 22.255-6.842 13.229-4.6718-2.4229-9.2678-3.3556-16.195 1.0292-5.2026 3.2908-5.8091-1.04-4.7287-3.7737 2.5302-6.389 16.224-12.446 27.766-10.484z"/>
  <path d="m981.79 108.27c36.825 5.6709 26.799 46.483-20.005 27.004-12.518-5.1991-24.828-7.4182-43.354 0.91145-13.902 6.2496-15.55-2.5086-12.679-7.9224 6.7468-12.682 45.136-24.742 76.038-19.993z"/>
  <path d="m874.29 136.54c5.6101-2.4442 11.494-0.45015 13.153 4.4598 1.6582 4.9096-1.5446 10.87-7.1547 13.325-5.6005 2.4442-11.495 0.45016-13.144-4.4594-1.6585-4.8991 1.5446-10.87 7.1452-13.325z"/>
 </g>
 <path d="m296.51 81.069s17.635-6.2176 29.244 16.209c11.618 22.416-2.1892 28.966-1.2036 62.788 0.97604 33.811 3.9707 36.62 9.5712 46.418 5.6101 9.809 1.9425 25.343-14.432 18.546-16.375-6.7966-28.173-18.589-41.231-49.752-27.624-80.894 18.052-94.209 18.052-94.209z" fill="#429ad2"/>
 <path d="m287.98 100.97c11.675-15.684 29.699-3.3124 11.239 10.624-4.9562 3.7413-8.2444 7.8579-6.8041 15.855 1.0804 6.0033-3.9895 5.2636-6.4722 3.3877-5.7995-4.3953-5.7712-19.393 2.0374-29.866z" fill="#fff"/>
 <path d="m-101.83 50.581s-16.622 9.2728-11.627 34.605c4.994 25.332 19.028 19.307 38.663 44.607 19.626 25.289 19.123 29.663 20.924 41.155 1.8005 11.492 13.826 19.886 21.71 2.1762 7.8748-17.71 9.4101-35.484 0.19896-68.287-28.467-80.251-69.869-54.255-69.869-54.255z" fill="#429ad2"/>
 <path d="m-83.627 58.364c-17.967-2.2619-23.691 20.786-1.8194 16.477 5.8754-1.1578 10.756-0.7289 14.518 6.1963 2.8146 5.1995 6.0744 0.69684 6.7568-2.5943 1.6014-7.7185-7.439-18.578-19.455-20.079z" fill="#fff"/>
 <path d="m547 264.74c8.6426 15.223 51.333 0.27872 66.723-9.1335 15.39-9.4125 20.895-29.513 12.253-44.735-8.6522-15.234-28.249-19.972-43.639-10.56-15.39 9.4125-43.98 49.195-35.337 64.428z" fill="#429ad2"/>
 <path d="m613.38 211.88c0.55908-4.9312-3.402-9.4446-8.8602-10.088-5.449-0.64317-10.32 2.8302-10.879 7.7614-0.5686 4.9315 3.4022 9.4446 8.8508 10.088 5.449 0.64319 10.33-2.841 10.888-7.7614z" fill="#fff"/>
 <path d="m798.81 63.059s14.499 16.027 1.6112 40.522c-12.888 24.496-25.672 12.843-53.778 31.689-28.107 18.857-28.912 23.606-34.266 34.894-5.3541 11.288-20.431 15.437-23.255-6.0461-2.8334-21.483 0.96643-40.598 20.507-71.268 53.977-72.758 89.182-29.791 89.182-29.791z" fill="#429ad2"/>
 <path d="m756.84 63.049c16.868-5.1991 17.494 15.576-1.6204 15.244-5.1364-0.085709-9.6848 1.147-14.499 8.3297-3.6107 5.3921-5.6954 1.7045-5.6575-1.2864 0.075684-7.0109 10.509-18.803 21.777-22.287z" fill="#fff"/>
 <path d="m1080.7 233.49c5.6668 10.634 35.205 1.3292 45.922-4.7814 10.727-6.1102 14.84-19.779 9.1728-30.413-5.6668-10.645-19.028-14.333-29.746-8.2227-10.718 6.1214-31.016 32.772-25.349 43.417z" fill="#429ad2"/>
 <path d="m1127.2 198.7c0.47376-3.3661-2.1699-6.5499-5.8942-7.1182-3.7336-0.55748-7.1356 1.7153-7.6096 5.0813-0.46423 3.3661 2.1797 6.5607 5.9039 7.1182 3.7241 0.56828 7.1356-1.7153 7.5998-5.0813z" fill="#fff"/>
 <path d="m-389.12 283.34c-3.4398 6.4534-21.35 0.81464-27.842-2.8943-6.5006-3.7092-8.9929-11.985-5.5625-18.439 3.4398-6.443 11.542-8.6833 18.033-4.9744 6.5008 3.7093 18.801 19.865 15.37 26.307z" fill="#429ad2"/>
 <path d="m-417.27 262.25c-0.28427-2.0369 1.3171-3.9664 3.582-4.3096 2.2554-0.34283 4.3213 1.04 4.6056 3.0769 0.28427 2.0473-1.3173 3.9772-3.5821 4.3201-2.2553 0.3432-4.3212-1.0397-4.6054-3.0873z" fill="#fff"/>
 <path d="m1203.6 262.15s0.92859 8.5223-7.9127 12.285c-8.8414 3.7521-10.168-3.0445-22.298-4.9741-12.12-1.9298-13.343-0.75049-17.247 1.1362-3.9044 1.8759-9.1732-0.90033-5.5531-7.9328 3.62-7.0325 8.6898-11.621 20.753-15.416 30.846-7.0001 32.257 14.901 32.257 14.901z" fill="#429ad2"/>
 <path d="m1191.3 251.04c6.0176 2.9375 1.8953 9.1871-3.6293 4.0308-1.4785-1.3937-3.0706-2.2299-5.9608-1.4045-2.1796 0.61113-2.0184-1.0184-1.3929-1.8759 1.4783-2.0369 6.965-2.7229 10.983-0.7505z" fill="#fff"/>
 <path d="m-245.07 100.18s-14.233 11.857-5.7237 34.551c8.5098 22.684 20.801 14.344 43.06 34.154 22.26 19.822 22.44 24.003 25.861 34.38 3.4209 10.377 15.996 15.898 20.734-2.1654 4.7382-18.053 3.5063-34.948-10.092-63.785-38.843-69.424-73.84-37.135-73.84-37.135z" fill="#429ad2"/>
 <path d="m-208.82 105.62c-14.006-6.6464-16.773 11.085-0.22745 13.293 4.4445 0.58952 8.2445 2.2407 11.637 9.0265 2.5397 5.0814 4.7288 2.187 5.0226-0.37524 0.68222-6.0249-7.0694-17.495-16.432-21.944z" fill="#fff"/>
 <path d="m1187 105.14s3.8477 10.709-6.3962 19.039c-10.244 8.3297-14.073 0.032074-30.324 2.2727-16.242 2.2404-17.455 4.2452-21.909 8.2116-4.4539 3.9772-12.11 2.4334-9.6278-8.115 2.4828-10.538 7.6001-18.471 21.985-28.119 37.659-21.14 46.273 6.7109 46.273 6.7109z" fill="#429ad2"/>
 <path d="m1167.7 95.52c8.6802 1.4686 5.3066 11.181-3.4305 6.6465-2.3502-1.2219-4.6527-1.6937-8.1403 0.5146-2.6058 1.6508-2.9092-0.5254-2.3689-1.8975 1.2696-3.2051 8.1401-6.2499 13.94-5.2636z" fill="#fff"/>
 <path d="m-116.96 204.28s-7.7137 6.8503-2.6438 19.404c5.0603 12.543 11.751 7.6973 24.392 18.428 12.651 10.731 12.822 13.057 14.868 18.803 2.0565 5.7462 9.1163 8.6405 11.466-1.5222 2.3595-10.163 1.412-19.586-6.5576-35.494-22.601-38.196-41.525-19.618-41.525-19.618z" fill="#429ad2"/>
 <g fill="#fff">
  <path d="m-96.771 206.76c-7.8749-3.5054-9.1352 6.4534 0.075806 7.429 2.4733 0.25746 4.6056 1.1258 6.5861 4.8671 1.4878 2.7978 2.6533 1.147 2.7766-0.28955 0.29367-3.3769-4.1792-9.6697-9.4385-12.006z"/>
  <path d="m-350.38 191.84c-22.213 3.409-16.157 28.022 12.063 16.284 7.5526-3.141 14.973-4.481 26.155 0.54701 8.3771 3.7734 9.3722-1.5118 7.6379-4.7706-4.0653-7.6541-27.216-14.933-45.856-12.06z"/>
  <path d="m-285.54 208.89c-3.3832-1.4686-6.9368-0.26793-7.9317 2.6909-1.0045 2.9588 0.92874 6.5499 4.3117 8.0293s6.9272 0.27873 7.9317-2.68c0.995-2.9588-0.93826-6.5607-4.3117-8.0401z"/>
 </g>
 <path d="m-407.2 101.58s-4.5296 11.706 6.6523 21.322c11.192 9.6052 15.636 0.55716 33.641 3.6553 18.005 3.0876 19.303 5.3601 24.155 9.9163 4.8518 4.5668 13.399 3.1518 10.898-8.6192-2.5112-11.771-8.0075-20.744-23.767-31.968-41.326-24.828-51.58 5.6924-51.58 5.6924v1.5e-5z" fill="#429ad2"/>
 <path d="m-385.51 91.65c-9.6753 1.2972-6.1597 12.178 3.6579 7.4934 2.6344-1.2651 5.212-1.6937 9.031 0.87907 2.8617 1.9188 3.2502-0.47176 2.6817-2.0153-1.3361-3.602-8.8982-7.2255-15.37-6.3572z" fill="#fff"/>
 <path d="m628.44 81.519s7.9413 7.2684 2.5207 20.165c-5.4109 12.886-12.3 7.7077-25.577 18.546-13.276 10.849-13.475 13.261-15.683 19.168-2.1986 5.9176-9.5709 8.7478-11.893-1.833-2.3311-10.592-1.2319-20.336 7.2493-36.652 23.947-39.075 43.383-19.393 43.383-19.393z" fill="#429ad2"/>
 <path d="m607.43 83.642c8.2256-3.4626 9.4193 6.8823-0.17072 7.6973-2.5775 0.21428-4.7948 1.0613-6.9083 4.8883-1.5729 2.8731-2.7766 1.1362-2.8806-0.35398-0.25598-3.5159 4.4634-9.9268 9.9595-12.232z" fill="#fff"/>
</svg>
